# xmcd
#
# Track frame offsets:
#	150
#	13935
#	25643
#	40083
#	51356
#	63298
#	78144
#	89561
#	101556
#	116603
#	128145
#	145053
#	156430
#	169865
#	183549
#	195516
#
# Disc length: 2803 seconds
#
# Revision: 0
# Processed by: cddbd v1.5.2PL0 Copyright (c) Steve Scherf et al.
# Submitted via: audiograbber 1.83.01
#
DISCID=d30af110
DTITLE=Various Artist - Nashville Super Hits Vol.2
DYEAR=1976
DGENRE=Country
TTITLE0=Johnny Carver - Yellow Ribbon
TTITLE1=Freddy Fender - Befor The Next Tear Drop
TTITLE2=Donna Fargo - I´ll Try Little Bit Harder
TTITLE3=Tommy Overstreet - I´m A Believer
TTITLE4=Don Williams - The Ties That Bind
TTITLE5=Roy Clark - Somewhere Between Love
TTITLE6=Donna Fargo - Little Girl Gone
TTITLE7=Joe Stampley - Too Far Gone
TTITLE8=Amazing Rhythm Aces - Amazing Grace
TTITLE9=Billy "Crash" Craddock - Still Thinkin' About You
TTITLE10=Donna Fargo - U.S. Of  A
TTITLE11=Joe Stampley - Soul Song
TTITLE12=Narvel Felts - Somebody Hold Me
TTITLE13=Don Williams - I Wouldn´t Want To Live If You Didn´t Love Me
TTITLE14=Tommy Overstreet - You Were A Lady
TTITLE15=Donna Fargo - You Where Always There
EXTD=
EXTT0=
EXTT1=
EXTT2=
EXTT3=
EXTT4=
EXTT5=
EXTT6=
EXTT7=
EXTT8=
EXTT9=
EXTT10=
EXTT11=
EXTT12=
EXTT13=
EXTT14=
EXTT15=
PLAYORDER=
